# Blender 3.4.1
# www.blender.org
mtllib rock.mtl
o Cube.006
v -11.334203 1.049936 -1.811505
v -11.739946 0.949200 -2.011975
v -11.999194 0.768123 -2.176679
v -12.316158 0.433552 -1.989827
v -12.570219 0.288011 -1.606204
v -12.967437 0.481219 -0.269774
v -12.570880 0.528780 -0.359217
v -11.576524 1.202999 -0.152890
v -11.902857 0.209245 0.363641
v -10.490498 0.929513 -0.919792
v -10.439264 0.843287 -0.836073
v -11.497704 0.164062 0.199741
v -10.455372 0.390397 -1.389103
v -10.870450 0.982062 -1.600969
v -10.766021 0.803692 -1.608292
v -10.365561 0.767184 -1.392791
v -12.062675 0.106245 -1.732700
v -11.866559 1.126146 0.053433
v -12.728577 0.459958 0.094441
v -12.252994 0.678421 0.310123
v -12.378391 0.567292 0.075662
v -11.372612 1.106206 0.195307
v -12.424214 0.448795 0.408038
v -12.462837 0.232882 0.439438
v -12.266172 0.394512 0.434217
v -12.529159 0.162536 0.318684
v -11.823808 0.764004 0.312352
v -12.320202 0.189553 0.443625
v -11.178388 0.899168 0.269706
v -11.596798 0.465990 0.337109
v -10.715061 0.942413 0.002616
v -10.979011 0.695811 0.251477
v -10.805154 0.562013 0.134485
v -10.927112 0.262850 0.047496
v -10.552825 0.821906 -0.160855
v -10.574647 0.621785 -0.154048
v -10.642759 0.412756 -0.194806
v -10.462481 0.814565 -0.492852
v -10.626422 0.215506 -0.745251
v -10.756291 0.160637 -0.381085
v -10.443524 0.472642 -0.874193
v -10.364355 0.644810 -1.170076
v -10.798473 0.039524 -0.941103
v -10.438269 0.395466 -1.222631
v -10.364967 0.626374 -1.406094
v -10.591099 0.211724 -1.317627
v -10.444740 0.525792 -1.481510
v -10.790046 0.277083 -1.640239
v -10.559174 0.656524 -1.597457
v -10.780597 0.432394 -1.753922
v -11.153192 0.319069 -1.946456
v -11.205537 0.586941 -2.055692
v -11.415833 0.408602 -2.137935
v -11.554703 0.331421 -2.155858
v -11.711323 0.129631 -1.897032
v -11.102180 0.694680 -1.958274
v -11.866871 0.278584 -2.165824
v -11.642015 0.576598 -2.227647
v -12.015759 0.190873 -1.974001
v -11.812882 0.382421 -2.248101
v -11.318443 0.821650 -2.020835
v -12.248777 0.277715 -1.948459
v -11.654704 0.700764 -2.199581
v -11.550130 0.846433 -2.084683
v -11.963495 0.564548 -2.261421
v -12.047040 0.417130 -2.181433
v -12.504599 0.319976 -1.741880
v -11.080072 1.154969 -0.036177
v -10.822563 1.066440 -0.016029
v -10.789557 1.138835 -0.250444
v -10.526154 1.060058 -0.395759
v -11.049817 1.171147 -0.612789
v -10.536444 1.125603 -0.572466
v -11.153344 1.255958 -1.105995
v -10.554280 1.178879 -0.905598
v -10.496597 1.016457 -0.963118
v -10.637387 1.210542 -1.282300
v -10.483671 1.026692 -1.343407
v -10.408957 0.892741 -1.365510
v -12.141724 0.086576 0.362219
v -12.263468 0.028356 0.181128
v -12.849971 0.150477 -0.067373
v -11.745708 0.101971 0.054354
v -12.542449 -0.039670 -0.340729
v -13.032970 0.108234 -0.382789
v -12.953518 0.190933 -0.706903
v -12.278968 -0.004993 -0.771242
v -11.930331 0.080090 -0.496711
v -12.641691 0.153986 -0.855267
v -12.764627 0.331861 -1.031183
v -12.626990 0.254338 -1.171701
v -11.881582 -0.026067 -1.266801
v -11.560377 -0.023151 -1.352031
v -11.320965 1.213736 -0.392649
v -11.213575 1.258421 -1.482055
v -11.533476 1.184808 -1.659342
v -11.571861 1.248476 -1.169456
v -11.923844 1.181993 -0.350729
v -12.130470 1.134142 -1.259518
v -11.710006 1.191777 -1.646439
v -12.138321 1.005061 -1.660380
v -12.341226 0.676139 -1.826452
v -12.021666 0.944906 -1.981837
v -12.521385 0.758159 -1.055601
v -12.414988 0.731321 -1.543877
v -12.160177 0.699672 -2.074294
v -12.587836 0.449832 -1.544404
v -13.005545 0.521249 -0.644294
v -12.422112 0.472523 -1.851911
v -11.285160 0.126207 -0.147039
v -12.785509 0.351694 -1.033984
v -11.698446 1.181288 -1.599526
v -11.570616 1.231087 -1.174511
v -11.576524 1.239049 -0.152890
v -11.227230 1.242988 -1.443408
v -10.675318 1.196981 -1.252064
v -10.598772 1.165171 -0.904005
v -11.152099 1.238568 -1.111050
v -11.048573 1.153758 -0.617843
v -10.820454 1.126658 -0.288912
v -11.319719 1.196347 -0.397703
v -11.049817 1.207197 -0.612789
v -12.616170 0.501768 -0.357193
v -11.153344 1.292007 -1.105995
v -11.877766 1.172943 -0.363734
v -11.106880 1.145732 -0.077118
v -11.320965 1.249786 -0.392649
v -11.575278 1.185610 -0.157944
v -11.571861 1.284526 -1.169456
v -12.455416 0.451907 0.308556
v -11.381719 1.103715 0.141450
v -11.824618 1.123678 0.014905
v -12.692268 0.456650 0.062066
v -12.424284 0.539188 0.075833
v -11.825863 1.177117 0.019960
v -11.382964 1.157154 0.146504
v -12.456661 0.505346 0.313611
v -12.693513 0.510089 0.067121
v -11.108126 1.199171 -0.072064
v -11.879010 1.226382 -0.358680
v -12.617414 0.555207 -0.352138
v -12.425529 0.592627 0.080888
v -10.600017 1.218610 -0.898951
v -10.676562 1.250420 -1.247010
v -11.228476 1.296427 -1.438354
v -11.699692 1.234727 -1.594472
v -12.080595 1.181548 -1.243728
v -12.574390 0.749334 -0.950172
v -12.957244 0.557896 -0.625387
v -10.821699 1.180097 -0.283857
v -10.583529 1.165643 -0.587141
v -12.922949 0.524830 -0.284929
v -12.079350 1.128109 -1.248782
v -12.921703 0.471391 -0.289983
v -12.955999 0.504457 -0.630442
v -12.573145 0.695895 -0.955227
v -10.582283 1.112204 -0.592195
vn -0.7262 0.6710 0.1496
vn -0.0942 0.4491 0.8885
vn 0.0352 0.9680 0.2484
vn -0.7109 -0.3633 0.6021
vn -0.1069 0.1618 0.9810
vn 0.1230 0.1749 0.9769
vn 0.1427 0.0078 0.9897
vn 0.0417 0.1142 0.9926
vn 0.4073 0.4707 0.7827
vn 0.4409 0.3585 0.8229
vn 0.1761 -0.1088 0.9783
vn 0.1913 -0.3829 0.9038
vn 0.3010 -0.4153 0.8584
vn 0.2996 -0.3770 0.8764
vn 0.9599 -0.0957 0.2633
vn 0.9577 0.2835 0.0494
vn 0.9093 -0.3424 0.2365
vn 0.9737 -0.1435 0.1770
vn 0.8431 -0.4977 0.2034
vn 0.9753 0.1959 0.1023
vn 0.8376 -0.5305 0.1301
vn 0.7547 -0.6541 0.0509
vn 1.0000 0.0045 -0.0029
vn 0.9284 -0.3618 -0.0844
vn 0.8379 -0.3511 -0.4180
vn 0.6265 0.6150 0.4787
vn 0.6238 -0.4860 -0.6121
vn 0.2572 -0.8684 -0.4241
vn 0.5518 0.2022 -0.8091
vn 0.3844 -0.5134 -0.7673
vn 0.2373 -0.8305 -0.5039
vn -0.1000 -0.9327 -0.3466
vn 0.4378 0.3345 -0.8345
vn 0.4956 0.4911 -0.7164
vn 0.3596 0.3040 -0.8822
vn 0.3509 0.2404 -0.9050
vn -0.3051 -0.4889 -0.8172
vn -0.3028 -0.3162 -0.8991
vn 0.0142 0.3864 -0.9222
vn -0.5810 -0.1085 -0.8067
vn -0.5417 -0.4265 -0.7243
vn -0.6074 -0.4385 -0.6625
vn 0.2642 0.6617 -0.7017
vn -0.5885 0.2206 -0.7778
vn 0.0476 0.6340 -0.7719
vn 0.1170 0.9896 0.0841
vn 0.1434 0.9896 -0.0148
vn 0.4296 0.8440 0.3211
vn 0.4192 0.8589 0.2942
vn 0.0862 0.9959 0.0269
vn 0.2441 0.9630 0.1144
vn 0.0753 0.9853 0.1536
vn 0.0754 0.9853 0.1535
vn -0.0193 0.9998 0.0096
vn 0.0853 0.9963 -0.0071
vn 0.9482 0.2958 0.1156
vn 0.8708 0.4907 -0.0301
vn 0.2659 0.7676 -0.5831
vn 0.9745 0.1510 0.1658
vn 0.8998 0.4200 -0.1181
vn 0.4980 0.3246 -0.8041
vn 0.1663 -0.9658 0.1987
vn 0.1701 -0.9772 0.1272
vn -0.3083 -0.9077 0.2846
vn -0.2989 -0.9075 0.2950
vn 0.1974 -0.9801 0.0222
vn 0.2029 -0.9781 0.0454
vn -0.2620 -0.9358 -0.2357
vn -0.2908 -0.8718 -0.3941
vn 0.1267 -0.9815 0.1433
vn -0.3239 -0.8974 -0.2996
vn -0.9355 -0.0871 -0.3423
vn 0.0186 -0.9903 0.1377
vn -0.4911 -0.8612 -0.1309
vn -0.5897 -0.7956 -0.1387
vn -0.3725 -0.9086 -0.1889
vn 0.0331 -0.9953 0.0905
vn -0.3912 -0.8545 -0.3417
vn -0.2200 -0.8759 0.4295
vn 0.2366 -0.9165 -0.3225
vn -0.0000 0.9990 0.0447
vn -0.0853 0.9954 0.0441
vn 0.1237 0.8174 -0.5626
vn 0.0074 0.9187 -0.3948
vn -0.1907 0.9797 -0.0612
vn -0.0075 0.8335 -0.5525
vn -0.3730 0.8781 -0.2997
vn -0.6584 0.7445 0.1105
vn -0.7309 0.6540 -0.1952
vn -0.7315 0.6075 -0.3096
vn -0.6014 0.5560 -0.5738
vn -0.8330 0.5119 -0.2097
vn -0.2081 0.9333 0.2926
vn -0.8236 0.5235 -0.2183
vn -0.7665 0.3701 -0.5248
vn -0.8256 0.3801 -0.4169
vn -0.7386 0.2320 -0.6330
vn -0.7942 -0.0088 -0.6076
vn -0.8345 0.0400 0.5496
vn -0.0453 0.9553 0.2921
vn -0.1960 0.6096 0.7681
vn -0.7942 -0.0062 0.6077
vn -0.0896 0.4261 0.9002
vn -0.6954 0.2237 0.6829
vn -0.0347 0.3503 0.9360
vn -0.0072 0.3321 0.9432
vn -0.2199 -0.8104 0.5430
vn 0.2488 0.8353 0.4904
vn 0.3289 0.5772 0.7475
vn 0.1925 -0.1290 0.9728
vn -0.1479 0.9766 0.1559
vn -0.6903 0.6806 0.2453
vn 0.2857 0.9036 0.3193
vn 0.0683 0.9908 0.1172
vn 0.6175 0.1231 0.7769
vn 0.3042 -0.3759 0.8753
vn 0.7310 0.0624 0.6795
vn 0.7810 0.3920 0.4861
vn 0.1334 -0.9731 0.1880
vn 0.7862 -0.0648 0.6146
vn 0.7651 -0.3542 0.5378
vn 0.7049 -0.4474 0.5504
vn 0.9554 0.1462 0.2567
vn 0.6750 -0.6103 0.4146
vn 0.8220 -0.5280 0.2136
vn 0.9721 0.2189 0.0841
vn 0.9596 -0.1842 0.2129
vn 0.1507 -0.9685 0.1981
vn 0.9709 0.2243 0.0844
vn 0.6431 -0.7570 0.1153
vn 0.8424 0.5375 0.0381
vn 0.9509 -0.2989 0.0805
vn 0.9574 -0.2880 0.0200
vn 0.7828 -0.6193 -0.0616
vn 0.2334 -0.9149 -0.3293
vn 0.9442 0.2941 0.1485
vn 0.5870 -0.6428 -0.4922
vn 0.7056 0.0696 -0.7052
vn 0.6311 -0.4705 -0.6167
vn 0.6442 -0.1078 -0.7573
vn 0.5111 -0.5277 -0.6785
vn 0.3767 0.4707 -0.7978
vn 0.5055 -0.2698 -0.8196
vn 0.4677 0.6103 -0.6393
vn 0.1567 -0.8226 -0.5465
vn 0.6040 0.3823 -0.6993
vn -0.0635 -0.8880 -0.4554
vn 0.1350 -0.6575 -0.7413
vn -0.3967 -0.5946 -0.6993
vn -0.3371 -0.7295 -0.5952
vn 0.2733 -0.1402 -0.9517
vn 0.2812 0.4617 -0.8413
vn 0.0619 0.5903 -0.8048
vn 0.0932 0.2286 -0.9691
vn -0.7718 0.6251 0.1165
vn -0.3598 -0.8564 -0.3703
vn 0.5737 0.3583 -0.7365
vn 0.1445 0.7354 -0.6621
vn 0.9427 0.3337 0.0029
vn 0.9918 0.1053 0.0717
vn 0.1077 0.9924 0.0596
vn 0.7445 0.6587 -0.1089
vn -0.8650 -0.0001 0.5018
vn 0.4064 0.5754 -0.7098
vn 0.5148 0.4113 -0.7522
vn 0.3943 0.6357 -0.6636
vn -0.0259 0.9983 0.0530
vn -0.3108 -0.9069 0.2844
vn 0.1390 -0.9903 -0.0073
vn -0.2924 -0.9070 -0.3031
vn -0.3463 -0.7697 -0.5363
vn -0.6589 -0.7076 -0.2550
vn -0.2607 -0.9506 -0.1686
vn -0.0587 -0.9653 -0.2543
vn -0.0542 -0.9659 -0.2533
vn -0.4599 -0.7886 -0.4082
vn 0.2669 -0.5290 0.8056
vn 0.2349 -0.9264 -0.2943
vn -0.1040 0.9907 -0.0877
vn 0.0924 0.8021 -0.5900
vn -0.1996 0.9799 -0.0062
vn -0.3763 0.8840 -0.2773
vn -0.7003 0.6913 0.1779
vn -0.7302 0.6544 -0.1964
vn -0.6968 0.6157 -0.3681
vn -0.6925 0.5618 -0.4526
vn -0.8103 0.4981 -0.3088
vn -0.0926 0.9890 0.1151
vn -0.2511 -0.7700 0.5865
vn -0.0143 0.0496 0.9987
vn 0.7001 -0.0201 -0.7137
vn 0.6875 -0.7247 0.0472
vn 0.5785 -0.0021 -0.8157
vn 0.2738 -0.2789 -0.9205
vn 0.3666 -0.0033 -0.9304
vn 0.4062 0.5755 -0.7097
vn 0.1040 0.0133 -0.9945
vn -0.6349 0.1304 -0.7615
vn -0.0713 0.8338 -0.5475
vn -0.8864 0.1141 -0.4486
vn 0.5108 -0.2189 -0.8314
vn -0.0834 0.7332 -0.6749
vn 0.1249 0.0336 0.9916
vn 0.2098 -0.9388 0.2733
vn 0.0246 -0.9960 0.0859
vn -0.8654 -0.0962 -0.4918
vn -0.6979 0.4228 -0.5780
vn -0.9980 0.0325 -0.0534
vn -0.1910 0.9782 0.0820
vn -0.2661 0.9190 0.2910
vn 0.0414 0.9702 0.2386
vn 0.1217 0.9897 0.0755
vn 0.1418 0.9898 -0.0168
vn 0.0876 0.9959 0.0213
vn 0.0794 0.9851 0.1527
vn 0.0694 0.9841 0.1635
vn -0.0206 0.9996 0.0179
vn 0.0851 0.9964 -0.0060
vn -0.0718 0.9964 0.0442
vn -0.1900 0.9801 -0.0577
vn -0.2229 0.9318 0.2864
vn -0.0388 0.9572 0.2869
vn -0.1411 0.9790 0.1472
vn 0.0648 0.9914 0.1135
vn 0.1064 0.9920 0.0673
vn -0.1014 0.9912 -0.0856
vn -0.1977 0.9802 -0.0046
vn -0.0757 0.9917 0.1039
vn -0.1862 0.9799 0.0716
vn -0.2948 0.9070 0.3007
vn 0.0259 -0.9983 -0.0530
vn -0.1064 -0.9920 -0.0673
vn -0.0648 -0.9914 -0.1135
vn 0.1411 -0.9790 -0.1472
vn 0.0388 -0.9572 -0.2869
vn 0.2229 -0.9318 -0.2864
vn 0.1900 -0.9801 0.0577
vn 0.0718 -0.9964 -0.0442
vn -0.0000 -0.9990 -0.0447
vn -0.0851 -0.9964 0.0060
vn 0.0206 -0.9996 -0.0179
vn -0.0694 -0.9841 -0.1635
vn -0.0794 -0.9851 -0.1527
vn -0.2441 -0.9630 -0.1144
vn -0.0876 -0.9959 -0.0213
vn -0.1418 -0.9898 0.0168
vn -0.1217 -0.9897 -0.0755
vn -0.0414 -0.9702 -0.2386
vn 0.1014 -0.9912 0.0856
vn 0.1977 -0.9802 0.0046
vn 0.0757 -0.9917 -0.1039
vn 0.1862 -0.9799 -0.0716
vn 0.2948 -0.9070 -0.3007
vn 0.5907 -0.0623 0.8045
vn 0.9969 0.0160 0.0769
vn -0.7194 -0.0820 0.6897
vn 0.7849 -0.0402 0.6183
vn -0.9948 -0.0324 0.0971
vn -0.6804 0.0533 -0.7309
vn 0.6268 -0.0589 0.7769
vn -0.8370 -0.0708 0.5425
vn 0.9985 0.0278 -0.0481
vn 0.9906 0.0102 0.1363
vn -0.9903 -0.0358 0.1343
vn 0.9766 0.0427 -0.2109
vn -0.6619 0.0553 -0.7476
vn 0.9107 0.0599 -0.4087
vn 0.3016 0.0967 -0.9485
vn -0.9736 -0.0439 0.2240
vn -0.2775 -0.0969 0.9558
vn 0.3332 0.0965 -0.9379
vt 0.620564 0.661220
vt 0.620564 0.661220
vt 0.620564 0.661220
vt 0.620564 0.661220
vt 0.620564 0.661220
vt 0.620564 0.661220
vt 0.620564 0.661220
vt 0.620564 0.661220
vt 0.620564 0.661220
vt 0.620564 0.661220
vt 0.620564 0.661220
vt 0.620564 0.661220
vt 0.620564 0.661220
vt 0.620564 0.661220
vt 0.620564 0.661220
vt 0.620564 0.661220
vt 0.620564 0.661220
vt 0.620564 0.661220
vt 0.620564 0.661220
vt 0.620564 0.661220
vt 0.620564 0.661220
vt 0.620564 0.661220
vt 0.620564 0.661220
vt 0.620564 0.661220
vt 0.620564 0.661220
vt 0.620564 0.661220
vt 0.620564 0.661220
vt 0.620564 0.661220
vt 0.620564 0.661220
vt 0.620564 0.661220
vt 0.620564 0.661220
vt 0.620564 0.661220
vt 0.620564 0.661220
vt 0.620564 0.661220
vt 0.620564 0.661220
vt 0.620564 0.661220
vt 0.620564 0.661220
vt 0.620564 0.661220
vt 0.620564 0.661220
vt 0.620564 0.661220
vt 0.620564 0.661220
vt 0.620564 0.661220
vt 0.620564 0.661220
vt 0.620564 0.661220
vt 0.620564 0.661220
vt 0.620564 0.661220
vt 0.620564 0.661220
vt 0.620564 0.661220
vt 0.620564 0.661220
vt 0.620564 0.661220
vt 0.620564 0.661220
vt 0.620564 0.661220
vt 0.620564 0.661220
vt 0.620564 0.661220
vt 0.620564 0.661220
vt 0.620564 0.661220
vt 0.620564 0.661220
vt 0.620564 0.661220
vt 0.620564 0.661220
vt 0.620564 0.661220
vt 0.620564 0.661220
vt 0.620564 0.661220
vt 0.620564 0.661220
vt 0.620564 0.661220
vt 0.620564 0.661220
vt 0.620564 0.661220
vt 0.620564 0.661220
vt 0.620564 0.661220
vt 0.620564 0.661220
vt 0.620564 0.661220
vt 0.620564 0.661220
vt 0.620564 0.661220
vt 0.620564 0.661220
vt 0.620564 0.661220
vt 0.620564 0.661220
vt 0.620564 0.661220
vt 0.620564 0.661220
vt 0.620564 0.661220
vt 0.620564 0.661220
vt 0.620564 0.661220
vt 0.620564 0.661220
vt 0.620564 0.661220
vt 0.620564 0.661220
vt 0.620564 0.661220
vt 0.620564 0.661220
vt 0.620564 0.661220
vt 0.620564 0.661220
vt 0.620564 0.661220
vt 0.620564 0.661220
vt 0.620564 0.661220
vt 0.620564 0.661220
vt 0.620564 0.661220
vt 0.620564 0.661220
vt 0.620564 0.661220
vt 0.620564 0.661220
vt 0.620564 0.661220
vt 0.620564 0.661220
vt 0.620564 0.661220
vt 0.620564 0.661220
vt 0.620564 0.661220
vt 0.620564 0.661220
vt 0.620564 0.661220
vt 0.620564 0.661220
vt 0.620564 0.661220
vt 0.620564 0.661220
vt 0.620564 0.661220
vt 0.620564 0.661220
vt 0.620564 0.661220
vt 0.620564 0.661220
vt 0.620564 0.661220
vt 0.620564 0.661220
vt 0.994161 0.661220
vt 0.994161 0.661220
vt 0.994161 0.661220
vt 0.994161 0.661220
vt 0.994161 0.661220
vt 0.994161 0.661220
vt 0.994161 0.661220
vt 0.994161 0.661220
vt 0.994161 0.661220
vt 0.994161 0.661220
vt 0.994161 0.661220
vt 0.994161 0.661220
vt 0.994161 0.661220
vt 0.994161 0.661220
vt 0.994161 0.661220
vt 0.994161 0.661220
vt 0.994161 0.661220
vt 0.994161 0.661220
vt 0.994161 0.661220
vt 0.994161 0.661220
vt 0.994161 0.661220
vt 0.994161 0.661220
vt 0.994161 0.661220
vt 0.994161 0.661220
vt 0.994161 0.661220
vt 0.994161 0.661220
vt 0.994161 0.661220
vt 0.994161 0.661220
vt 0.994161 0.661220
vt 0.994161 0.661220
vt 0.994161 0.661220
vt 0.994161 0.661220
vt 0.994161 0.661220
vt 0.994161 0.661220
vt 0.994161 0.661220
vt 0.994161 0.661220
vt 0.994161 0.661220
vt 0.994161 0.661220
vt 0.994161 0.661220
vt 0.994161 0.661220
vt 0.994161 0.661220
vt 0.994161 0.661220
vt 0.994161 0.661220
vt 0.994161 0.661220
vt 0.994161 0.661220
vt 0.994161 0.661220
s 0
usemtl Objects
f 21/21/1 20/20/1 18/18/1 98/98/1
f 20/20/2 23/23/2 27/27/2
f 8/8/3 22/22/3 68/68/3
f 82/82/4 26/26/4 24/24/4
f 23/23/5 24/24/5 25/25/5
f 27/27/6 25/25/6 30/30/6
f 25/25/7 28/28/7 30/30/7
f 27/27/8 30/30/8 29/29/8
f 69/69/9 29/29/9 31/31/9
f 29/29/10 32/32/10 31/31/10
f 30/30/11 9/9/11 32/32/11
f 28/28/12 80/80/12 9/9/12
f 9/9/13 12/12/13 34/34/13
f 32/32/14 34/34/14 33/33/14
f 35/35/15 36/36/15 38/38/15
f 73/73/16 71/71/16 11/11/16
f 36/36/17 37/37/17 41/41/17
f 38/38/18 41/41/18 42/42/18
f 37/37/19 39/39/19 41/41/19
f 11/11/20 42/42/20 16/16/20
f 41/41/21 39/39/21 44/44/21
f 39/39/22 46/46/22 44/44/22
f 42/42/23 45/45/23 16/16/23
f 44/44/24 13/13/24 45/45/24
f 13/13/25 47/47/25 45/45/25
f 69/69/26 31/31/26 71/71/26
f 48/48/27 50/50/27 13/13/27
f 55/55/28 51/51/28 48/48/28
f 52/52/29 56/56/29 49/49/29
f 54/54/30 53/53/30 51/51/30
f 55/55/31 54/54/31 51/51/31
f 17/17/32 59/59/32 55/55/32
f 52/52/33 61/61/33 56/56/33
f 56/56/34 61/61/34 14/14/34
f 52/52/35 63/63/35 61/61/35
f 58/58/36 63/63/36 52/52/36
f 57/57/37 66/66/37 60/60/37
f 66/66/38 65/65/38 60/60/38
f 65/65/39 3/3/39 63/63/39
f 66/66/40 4/4/40 65/65/40
f 62/62/41 4/4/41 66/66/41
f 67/67/42 4/4/42 62/62/42
f 64/64/43 1/1/43 61/61/43
f 65/65/44 106/106/44 3/3/44
f 3/3/45 2/2/45 64/64/45
f 68/68/46 70/70/46 94/94/46
f 70/70/47 72/72/47 94/94/47
f 69/69/48 71/71/48 70/70/48
f 71/71/49 73/73/49 70/70/49
f 70/70/50 73/73/50 72/72/50
f 72/72/51 74/74/51 94/94/51
f 73/73/52 74/74/52 72/72/52
f 73/73/53 75/75/53 74/74/53
f 97/97/54 74/74/54 95/95/54
f 74/74/55 77/77/55 95/95/55
f 75/75/56 76/76/56 79/79/56
f 75/75/57 79/79/57 78/78/57
f 95/95/58 77/77/58 1/1/58
f 76/76/59 10/10/59 79/79/59
f 73/73/60 11/11/60 10/10/60
f 14/14/61 78/78/61 15/15/61
f 81/81/62 12/12/62 80/80/62
f 81/81/63 83/83/63 12/12/63
f 82/82/64 84/84/64 26/26/64
f 85/85/65 84/84/65 82/82/65
f 81/81/66 84/84/66 88/88/66
f 84/84/67 87/87/67 88/88/67
f 85/85/68 87/87/68 84/84/68
f 86/86/69 89/89/69 87/87/69
f 88/88/70 87/87/70 92/92/70
f 89/89/71 91/91/71 87/87/71
f 107/107/72 5/5/72 90/90/72 111/111/72
f 88/88/73 92/92/73 43/43/73
f 91/91/74 5/5/74 87/87/74
f 91/91/75 90/90/75 5/5/75
f 87/87/76 5/5/76 17/17/76
f 92/92/77 93/93/77 43/43/77
f 5/5/78 62/62/78 17/17/78
f 26/26/79 81/81/79 80/80/79
f 93/93/80 55/55/80 48/48/80
f 94/94/81 97/97/81 8/8/81
f 8/8/82 97/97/82 98/98/82
f 95/95/83 1/1/83 96/96/83
f 95/95/84 96/96/84 100/100/84
f 97/97/85 100/100/85 99/99/85
f 96/96/86 2/2/86 100/100/86
f 100/100/87 103/103/87 101/101/87
f 98/98/88 99/99/88 104/104/88
f 99/99/89 105/105/89 104/104/89
f 101/101/90 102/102/90 105/105/90
f 103/103/91 3/3/91 106/106/91
f 105/105/92 107/107/92 104/104/92
f 7/7/93 104/104/93 108/108/93
f 104/104/94 107/107/94 111/111/94
f 102/102/95 106/106/95 109/109/95
f 102/102/96 109/109/96 107/107/96
f 106/106/97 4/4/97 109/109/97
f 109/109/98 4/4/98 67/67/98
f 19/19/99 6/6/99 82/82/99
f 8/8/100 18/18/100 22/22/100
f 18/18/101 20/20/101 22/22/101
f 19/19/102 82/82/102 24/24/102
f 22/22/103 20/20/103 27/27/103
f 23/23/104 19/19/104 24/24/104
f 27/27/105 23/23/105 25/25/105
f 22/22/106 27/27/106 29/29/106
f 28/28/107 26/26/107 80/80/107
f 68/68/108 22/22/108 69/69/108
f 69/69/109 22/22/109 29/29/109
f 30/30/110 28/28/110 9/9/110
f 8/8/111 98/98/111 18/18/111
f 98/98/112 7/7/112 21/21/112
f 70/70/113 68/68/113 69/69/113
f 94/94/114 8/8/114 68/68/114
f 31/31/115 32/32/115 33/33/115
f 32/32/116 9/9/116 34/34/116
f 31/31/117 33/33/117 35/35/117
f 71/71/118 31/31/118 35/35/118
f 12/12/119 83/83/119 110/110/119
f 35/35/120 33/33/120 36/36/120
f 36/36/121 33/33/121 37/37/121
f 33/33/122 34/34/122 37/37/122
f 71/71/123 35/35/123 38/38/123
f 37/37/124 34/34/124 40/40/124
f 39/39/125 37/37/125 40/40/125
f 71/71/126 38/38/126 11/11/126
f 38/38/127 36/36/127 41/41/127
f 40/40/128 110/110/128 43/43/128
f 11/11/129 38/38/129 42/42/129
f 39/39/130 40/40/130 43/43/130
f 11/11/131 16/16/131 10/10/131
f 42/42/132 41/41/132 44/44/132
f 42/42/133 44/44/133 45/45/133
f 44/44/134 46/46/134 13/13/134
f 46/46/135 93/93/135 48/48/135
f 10/10/136 16/16/136 79/79/136
f 46/46/137 48/48/137 13/13/137
f 45/45/138 49/49/138 16/16/138
f 13/13/139 50/50/139 47/47/139
f 47/47/140 50/50/140 49/49/140
f 48/48/141 51/51/141 50/50/141
f 49/49/142 15/15/142 78/78/142
f 51/51/143 53/53/143 50/50/143
f 49/49/144 56/56/144 15/15/144
f 55/55/145 57/57/145 54/54/145
f 56/56/146 14/14/146 15/15/146
f 55/55/147 59/59/147 57/57/147
f 54/54/148 57/57/148 60/60/148
f 66/66/149 57/57/149 62/62/149
f 59/59/150 62/62/150 57/57/150
f 53/53/151 60/60/151 58/58/151
f 61/61/152 63/63/152 64/64/152
f 64/64/153 63/63/153 3/3/153
f 58/58/154 65/65/154 63/63/154
f 21/21/155 23/23/155 20/20/155
f 17/17/156 62/62/156 59/59/156
f 16/16/157 49/49/157 79/79/157
f 64/64/158 2/2/158 1/1/158
f 73/73/159 76/76/159 75/75/159
f 73/73/160 10/10/160 76/76/160
f 74/74/161 75/75/161 77/77/161
f 77/77/162 75/75/162 78/78/162
f 82/82/163 6/6/163 85/85/163
f 1/1/164 77/77/164 14/14/164
f 78/78/165 79/79/165 49/49/165
f 1/1/166 14/14/166 61/61/166
f 94/94/167 74/74/167 97/97/167
f 26/26/168 84/84/168 81/81/168
f 83/83/169 81/81/169 88/88/169
f 85/85/170 86/86/170 87/87/170
f 86/86/171 90/90/171 89/89/171
f 89/89/172 90/90/172 91/91/172
f 92/92/173 87/87/173 17/17/173
f 93/93/174 92/92/174 55/55/174
f 92/92/175 17/17/175 55/55/175
f 5/5/176 67/67/176 62/62/176
f 9/9/177 80/80/177 12/12/177
f 43/43/178 93/93/178 46/46/178
f 95/95/179 100/100/179 97/97/179
f 96/96/180 1/1/180 2/2/180
f 98/98/181 97/97/181 99/99/181
f 99/99/182 100/100/182 101/101/182
f 7/7/183 98/98/183 104/104/183
f 99/99/184 101/101/184 105/105/184
f 101/101/185 103/103/185 102/102/185
f 102/102/186 103/103/186 106/106/186
f 105/105/187 102/102/187 107/107/187
f 7/7/188 108/108/188 6/6/188
f 26/26/189 28/28/189 24/24/189
f 28/28/190 25/25/190 24/24/190
f 47/47/191 49/49/191 45/45/191
f 43/43/192 46/46/192 39/39/192
f 52/52/193 49/49/193 50/50/193
f 54/54/194 60/60/194 53/53/194
f 58/58/195 52/52/195 53/53/195
f 78/78/196 14/14/196 77/77/196
f 65/65/197 58/58/197 60/60/197
f 106/106/198 65/65/198 4/4/198
f 103/103/199 100/100/199 2/2/199
f 67/67/200 5/5/200 107/107/200 109/109/200
f 50/50/201 53/53/201 52/52/201
f 103/103/202 2/2/202 3/3/202
f 32/32/203 29/29/203 30/30/203
f 110/110/204 40/40/204 34/34/204 12/12/204
f 110/110/205 83/83/205 88/88/205 43/43/205
f 90/90/206 86/86/206 108/108/206 111/111/206
f 111/111/207 108/108/207 104/104/207
f 86/86/208 85/85/208 6/6/208 108/108/208
f 7/7/209 6/6/209 19/19/209 21/21/209
f 23/23/210 21/21/210 19/19/210
f 114/114/211 136/136/211 139/139/211
f 139/139/212 150/150/212 127/127/212
f 150/150/213 122/122/213 127/127/213
f 150/150/214 151/151/214 122/122/214
f 122/122/51 124/124/51 127/127/51
f 151/151/215 124/124/215 122/122/215
f 151/151/216 143/143/216 124/124/216
f 129/129/217 124/124/217 145/145/217
f 124/124/218 144/144/218 145/145/218
f 127/127/81 129/129/81 114/114/81
f 114/114/219 129/129/219 140/140/219
f 129/129/220 146/146/220 147/147/220
f 141/141/221 148/148/221 149/149/221
f 114/114/222 135/135/222 136/136/222
f 114/114/223 140/140/223 135/135/223
f 127/127/224 114/114/224 139/139/224
f 124/124/225 143/143/225 144/144/225
f 127/127/167 124/124/167 129/129/167
f 145/145/226 146/146/226 129/129/226
f 140/140/227 129/129/227 147/147/227
f 141/141/228 149/149/228 152/152/228
f 141/141/229 152/152/229 138/138/229 142/142/229
f 137/137/230 142/142/230 138/138/230
f 121/121/231 113/113/231 118/118/231
f 118/118/232 116/116/232 117/117/232
f 121/121/233 126/126/233 128/128/233
f 128/128/234 132/132/234 125/125/234
f 128/128/235 131/131/235 132/132/235
f 123/123/236 155/155/236 156/156/236
f 113/113/237 153/153/237 112/112/237
f 128/128/238 125/125/238 113/113/238
f 121/121/239 128/128/239 113/113/239
f 118/118/240 115/115/240 116/116/240
f 113/113/241 115/115/241 118/118/241
f 157/157/242 118/118/242 117/117/242
f 157/157/243 119/119/243 118/118/243
f 119/119/244 121/121/244 118/118/244
f 120/120/245 119/119/245 157/157/245
f 120/120/246 121/121/246 119/119/246
f 126/126/247 121/121/247 120/120/247
f 128/128/248 126/126/248 131/131/248
f 115/115/249 113/113/249 112/112/249
f 125/125/250 153/153/250 113/113/250
f 123/123/251 154/154/251 155/155/251
f 123/123/252 134/134/252 133/133/252 154/154/252
f 130/130/253 133/133/253 134/134/253
f 139/139/254 126/126/254 120/120/254 150/150/254
f 141/141/255 123/123/255 156/156/255 148/148/255
f 138/138/256 133/133/256 130/130/256 137/137/256
f 150/150/257 120/120/257 157/157/257 151/151/257
f 149/149/258 155/155/258 154/154/258 152/152/258
f 146/146/259 112/112/259 153/153/259 147/147/259
f 136/136/260 131/131/260 126/126/260 139/139/260
f 152/152/261 154/154/261 133/133/261 138/138/261
f 151/151/262 157/157/262 117/117/262 143/143/262
f 137/137/263 130/130/263 134/134/263 142/142/263
f 140/140/264 125/125/264 132/132/264 135/135/264
f 143/143/265 117/117/265 116/116/265 144/144/265
f 148/148/266 156/156/266 155/155/266 149/149/266
f 142/142/267 134/134/267 123/123/267 141/141/267
f 145/145/268 115/115/268 112/112/268 146/146/268
f 147/147/269 153/153/269 125/125/269 140/140/269
f 135/135/270 132/132/270 131/131/270 136/136/270
f 144/144/271 116/116/271 115/115/271 145/145/271
